<?xml version="1.0" standalone="no"?>
<!DOCTYPE svg PUBLIC "-//W3C//DTD SVG 20010904//EN"
 "http://www.w3.org/TR/2001/REC-SVG-20010904/DTD/svg10.dtd">
<svg version="1.0" xmlns="http://www.w3.org/2000/svg"
 width="700.000000pt" height="700.000000pt" viewBox="0 0 700.000000 700.000000"
 preserveAspectRatio="xMidYMid meet">
<metadata>
Created by potrace 1.14, written by Peter Selinger 2001-2017
</metadata>
<g transform="translate(0.000000,700.000000) scale(0.100000,-0.100000)"
fill="#000000" stroke="none">
<path d="M2876 6988 c-5 -18 -38 -225 -43 -268 -2 -19 -7 -59 -12 -88 -9 -60
-7 -300 4 -377 20 -151 84 -343 151 -458 73 -126 180 -252 205 -242 8 4 34 31
59 62 25 30 58 70 73 89 l29 33 -32 33 c-96 100 -199 307 -226 452 -3 17 -10
54 -14 81 -11 59 -7 371 4 382 12 12 203 -57 321 -117 216 -109 404 -262 527
-430 94 -128 122 -190 85 -190 -28 0 -238 -114 -312 -170 -205 -153 -332 -309
-578 -710 -133 -216 -251 -395 -267 -405 -5 -3 -10 -10 -10 -16 0 -8 24 -7 90
6 107 22 184 35 201 35 14 0 16 -8 13 -47 -2 -27 -5 -84 -9 -128 -3 -44 -8
-118 -11 -165 -3 -47 -6 -87 -6 -90 -2 -29 3 -31 75 -23 89 9 270 9 357 -1
135 -15 310 -67 400 -119 39 -22 112 -69 120 -77 3 -3 24 -22 47 -44 l41 -38
29 63 c60 131 75 231 59 389 -4 41 -9 84 -11 95 -2 11 -7 52 -10 90 -3 39 -8
84 -10 100 -2 17 -7 52 -10 80 -4 27 -7 50 -8 50 -1 0 -40 19 -87 41 -69 34
-213 128 -289 190 -179 145 -194 163 -185 219 6 39 47 75 85 75 42 0 379 -113
428 -144 127 -80 213 -211 226 -342 3 -27 7 -60 10 -74 3 -14 7 -41 9 -60 3
-19 14 -98 26 -175 12 -77 23 -174 24 -215 5 -160 -49 -352 -140 -493 l-44
-68 45 -120 c25 -66 49 -128 54 -137 8 -15 36 -17 289 -17 155 0 283 3 286 6
3 2 28 64 56 137 l50 133 -30 43 c-69 101 -119 225 -143 354 -13 68 -15 237
-3 291 3 13 8 49 11 80 4 31 8 63 10 71 3 8 11 65 20 125 25 172 26 174 41
218 33 94 136 212 223 256 71 37 397 139 424 134 55 -11 88 -82 62 -133 -14
-27 -34 -46 -145 -136 -116 -94 -226 -167 -325 -217 -64 -32 -91 -50 -91 -64
-1 -39 -18 -201 -36 -353 -14 -120 -12 -205 7 -286 16 -71 69 -194 83 -194 5
0 19 12 33 26 100 108 333 212 539 241 70 9 338 10 408 1 l53 -7 -5 102 c-3
56 -9 161 -12 234 l-6 131 68 -13 c38 -7 87 -16 108 -19 21 -4 51 -9 65 -12
76 -16 75 -20 18 58 -61 84 -115 167 -212 323 -37 61 -87 140 -111 177 -24 37
-44 72 -44 77 0 5 -4 11 -8 13 -5 2 -27 30 -49 63 -138 204 -315 380 -486 484
-69 42 -211 111 -228 111 -16 0 -10 14 36 90 180 290 500 526 863 633 48 15
52 15 53 -1 0 -9 3 -26 5 -37 8 -34 8 -226 1 -290 -27 -231 -111 -432 -239
-571 l-39 -42 28 -33 c50 -61 78 -92 111 -128 l32 -36 52 55 c152 164 262 409
295 656 14 111 7 442 -12 496 -2 7 -7 30 -10 52 -3 21 -7 41 -9 45 -2 3 -7 35
-11 71 -3 35 -9 68 -11 72 -13 21 -303 -59 -498 -136 -401 -161 -764 -403
-1076 -716 l-85 -86 -117 2 -118 1 -72 59 c-40 33 -81 66 -91 74 -11 8 -24 20
-31 25 -68 61 -340 280 -446 359 -309 232 -562 346 -909 410 -100 19 -101 19
-105 4z m1899 -3112 c53 -35 55 -110 4 -148 -22 -16 -43 -20 -126 -20 -110 0
-134 9 -156 55 -26 52 5 114 62 126 62 12 189 5 216 -13z"/>
<path d="M3286 3853 c91 -152 83 -294 -24 -406 -100 -105 -290 -203 -752 -387
-576 -231 -812 -347 -1095 -536 -164 -109 -266 -193 -410 -338 -250 -251 -392
-481 -463 -745 -21 -81 -25 -119 -26 -241 -1 -212 13 -279 90 -445 23 -50 65
-126 74 -135 3 -3 24 -30 47 -60 195 -257 533 -444 953 -526 110 -22 249 -31
430 -28 113 1 221 5 240 8 19 4 67 11 105 17 235 35 523 116 1210 339 355 115
611 195 735 229 92 25 304 78 345 85 17 4 80 15 140 27 214 41 471 33 630 -18
160 -51 302 -154 406 -295 28 -37 56 -68 62 -68 22 0 212 65 219 75 4 5 5 19
3 30 -2 11 -6 43 -9 70 -50 466 -187 827 -413 1085 -205 233 -515 389 -848
426 -33 3 -73 8 -90 10 -44 5 -366 5 -395 0 -14 -2 -57 -7 -96 -10 -39 -4 -80
-8 -90 -10 -11 -2 -44 -7 -74 -12 -30 -4 -57 -8 -60 -9 -3 -1 -25 -5 -50 -9
-25 -4 -101 -21 -170 -38 -69 -16 -132 -31 -140 -33 -142 -30 -442 -128 -765
-250 -478 -179 -762 -259 -1070 -301 -62 -8 -268 -9 -315 -1 -99 18 -147 33
-206 65 -127 68 -186 160 -199 309 l-6 68 21 -25 c125 -149 210 -199 395 -231
54 -10 234 -6 267 6 7 2 31 7 52 10 173 25 581 173 991 360 28 12 111 48 185
79 74 32 149 63 165 71 211 93 640 228 795 250 25 3 54 8 65 10 11 2 29 4 39
4 18 1 19 9 13 164 -4 89 -8 173 -11 187 -3 14 -10 61 -16 104 -49 331 -197
646 -396 842 -116 114 -258 201 -417 254 -48 17 -92 30 -97 30 -5 0 7 -26 26
-57z m1556 -2067 c248 -20 514 -132 685 -287 108 -99 208 -243 272 -394 34
-80 103 -303 99 -317 -2 -5 -15 -1 -28 10 -48 36 -176 100 -265 132 -49 17
-91 31 -93 30 -1 -1 -16 2 -33 5 -66 15 -90 17 -244 20 -312 8 -664 -61 -1231
-241 -94 -30 -174 -54 -178 -54 -7 0 81 86 304 300 36 34 58 59 50 57 -8 -3
-62 -27 -120 -52 -120 -53 -296 -106 -432 -131 -88 -16 -381 -23 -433 -10 -11
2 -41 8 -67 12 -27 3 -48 9 -48 13 0 3 266 138 592 299 325 161 589 294 587
297 -3 2 -22 0 -44 -5 -22 -5 -52 -11 -68 -14 -61 -11 -144 -26 -177 -31 -19
-3 -96 -17 -170 -30 -74 -14 -148 -27 -165 -30 -16 -2 -77 -14 -135 -25 -136
-26 -140 -26 -94 11 226 181 693 378 984 416 19 2 55 8 80 12 25 4 77 9 115
10 39 1 71 4 72 5 3 3 94 -1 185 -8z"/>
<path d="M6045 3905 c-5 -2 -48 -15 -94 -29 -249 -78 -449 -225 -586 -431
-116 -174 -185 -378 -230 -675 -9 -60 -14 -121 -21 -235 -3 -60 -7 -126 -8
-145 -4 -53 2 -60 49 -60 52 0 159 -23 235 -51 123 -45 313 -162 414 -254 21
-20 40 -34 43 -31 3 2 -2 33 -11 68 -15 62 -31 140 -42 208 -3 19 -7 37 -9 40
-2 3 -6 33 -10 65 -3 33 -8 67 -10 75 -2 8 -7 40 -10 70 -3 30 -10 89 -14 130
-16 139 -11 473 10 610 30 202 91 371 175 491 50 72 64 87 113 125 38 30 40
40 6 29z"/>
</g>
</svg>
